P3
36
38
255
255 253 255 255 255 250 255 255 227 255 255 227 255 253 251 255 251 255 255 254 255 254 255 255 251 254 255 249 255 255 251 255 246 252 255 244 255 253 255 254 250 255 255 254 255 250 249 247 254 255 255 242 246 255 248 255 255 244 251 255 254 255 255 247 247 247 249 249 249 250 250 250 255 255 255 251 251 251 253 253 253 255 255 255 253 253 253 254 254 254 255 255 255 253 253 253 255 255 255 255 255 255 242 242 242 255 255 255
255 254 255 254 254 244 255 255 220 251 251 197 255 255 207 255 255 205 255 255 200 255 255 202 255 255 211 255 255 209 255 255 191 255 255 193 255 255 208 255 251 209 255 255 211 255 253 212 255 255 237 255 255 251 252 255 255 252 255 255 242 243 245 255 255 255 255 255 255 236 236 236 255 255 255 255 255 255 255 255 255 255 255 255 255 255 255 255 255 255 255 255 255 255 255 255 255 255 255 237 237 237 255 255 255 252 252 252
255 254 253 254 253 235 255 255 206 240 242 145 237 233 82 241 237 54 238 239 49 237 239 50 234 240 56 234 240 54 235 241 47 237 239 50 242 238 69 238 231 78 247 239 92 241 232 115 255 254 192 255 247 216 255 255 236 254 252 240 255 255 251 253 253 253 229 229 229 11 11 11 0 0 0 0 0 0 0 0 0 0 0 0 0 0 0 4 4 4 2 2 2 8 8 8 0 0 0 4 4 4 241 241 241 251 251 251
255 255 248 255 255 230 255 255 193 233 235 110 247 241 41 252 246 4 251 248 0 249 249 0 249 248 0 249 248 0 251 248 0 252 247 0 249 238 6 245 232 14 248 237 31 243 231 71 255 255 179 255 250 221 255 255 236 255 253 242 253 252 248 255 255 255 255 255 255 0 0 0 5 5 5 0 0 0 4 4 4 4 4 4 0 0 0 0 0 0 0 0 0 0 0 0 5 5 5 0 0 0 255 255 255 255 255 255
255 254 244 255 255 223 255 255 182 232 233 95 246 234 34 254 236 2 253 238 0 253 239 0 253 239 0 253 239 0 255 238 0 255 237 0 255 245 1 255 241 6 255 242 18 250 233 68 255 255 198 255 249 250 255 250 255 255 252 255 255 254 255 251 251 251 255 255 255 0 0 0 5 5 5 0 0 0 0 0 0 2 2 2 12 12 12 0 0 0 12 12 12 0 0 0 10 10 10 0 0 0 255 255 255 255 255 255
255 255 239 255 255 216 255 255 170 235 235 85 251 238 35 255 240 6 255 241 1 255 242 0 255 242 0 255 241 0 255 240 0 255 239 0 255 238 0 255 238 0 254 239 0 241 228 53 255 255 204 255 246 253 253 248 254 248 249 253 255 255 255 251 251 251 255 255 255 0 0 0 9 9 9 0 0 0 0 0 0 0 0 0 0 0 0 0 0 0 15 15 15 0 0 0 3 3 3 0 0 0 250 250 250 255 255 255
255 252 233 255 255 211 255 255 161 234 236 73 244 239 26 251 240 2 251 240 0 251 240 0 252 240 0 255 238 2 255 235 7 255 235 5 255 241 0 255 245 0 252 247 0 239 235 48 255 255 197 255 255 248 247 255 242 247 255 243 252 255 251 251 251 251 246 246 246 2 2 2 1 1 1 0 0 0 7 7 7 0 0 0 11 11 11 0 0 0 0 0 0 0 0 0 7 7 7 12 12 12 255 255 255 249 249 249
255 249 228 255 255 209 255 255 156 232 235 66 245 242 23 250 244 0 250 244 0 252 243 0 253 242 4 255 239 9 255 236 18 255 237 16 255 235 0 254 243 0 246 245 0 233 235 48 255 255 204 252 255 255 241 255 245 242 255 244 251 255 251 255 255 255 246 246 246 14 14 14 0 0 0 0 0 0 7 7 7 0 0 0 0 0 0 3 3 3 0 0 0 17 17 17 0 0 0 0 0 0 255 255 255 249 249 249
255 248 229 255 255 208 255 255 158 232 235 66 246 244 21 250 247 0 251 246 0 253 245 0 254 243 3 255 240 13 255 237 26 255 236 24 254 233 4 255 246 7 242 239 0 239 239 67 255 252 218 252 252 255 234 250 255 242 255 255 247 252 255 255 255 255 255 255 255 0 0 0 2 2 2 0 0 0 4 4 4 0 0 0 0 0 0 0 0 0 4 4 4 5 5 5 0 0 0 0 0 0 255 255 255 255 255 255
255 250 234 255 255 213 255 255 165 230 235 73 243 241 19 250 242 0 250 242 0 250 242 0 251 240 0 254 237 7 255 234 18 255 234 18 255 239 8 255 248 12 248 242 8 245 240 76 255 254 226 255 249 255 243 251 255 245 255 255 252 255 255 246 246 246 245 245 245 0 0 0 10 10 10 0 0 0 0 0 0 2 2 2 8 8 8 3 3 3 0 0 0 0 0 0 0 0 0 0 0 0 255 255 255 249 249 249
255 250 241 255 255 221 255 255 177 233 233 87 249 238 32 254 241 2 254 242 0 254 242 0 255 241 0 255 240 2 255 238 5 255 237 5 255 236 0 255 243 6 249 237 5 250 237 71 255 251 209 255 248 255 253 249 255 252 255 255 250 251 255 255 255 255 255 255 255 0 0 0 0 0 0 2 2 2 8 8 8 0 0 0 0 0 0 0 0 0 0 0 0 15 15 15 0 0 0 0 0 0 255 255 255 255 255 255
255 254 251 255 255 232 255 255 191 234 234 112 249 235 64 255 237 37 255 239 30 255 239 29 255 239 29 255 240 27 255 239 23 255 239 22 251 230 15 253 233 22 243 228 23 247 232 81 255 247 197 255 249 253 255 248 253 255 253 255 255 255 255 246 246 246 255 255 255 0 0 0 0 0 0 0 0 0 6 6 6 9 9 9 3 3 3 6 6 6 0 0 0 4 4 4 0 0 0 4 4 4 248 248 248 250 250 250
255 252 255 255 255 243 255 255 209 240 238 153 239 223 110 244 224 93 243 226 86 242 227 82 242 227 82 242 228 77 242 231 64 243 230 63 255 238 78 255 239 82 250 236 78 253 239 117 255 250 201 255 252 241 255 251 243 254 253 249 255 255 253 255 255 255 247 247 247 15 15 15 0 0 0 1 1 1 9 9 9 0 0 0 1 1 1 9 9 9 0 0 0 2 2 2 0 0 0 20 20 20 233 233 233 255 255 255
255 252 255 255 253 250 255 255 223 248 246 189 255 255 193 255 255 184 255 255 177 255 255 175 255 255 181 255 255 175 255 255 159 255 255 156 255 255 160 255 255 164 255 253 156 255 253 174 255 255 220 255 255 241 255 255 245 253 255 249 251 251 249 234 234 234 255 255 255 240 240 240 255 255 255 250 250 250 244 244 244 255 255 255 255 255 255 252 252 252 248 248 248 255 255 255 255 255 255 236 236 236 255 255 255 250 250 250
255 250 255 255 251 255 255 255 234 255 255 220 255 255 225 255 255 223 255 255 220 255 255 225 254 255 237 254 255 236 254 255 220 255 255 220 255 255 237 255 255 241 255 255 230 255 255 232 255 255 246 251 255 253 248 255 255 248 255 255 252 255 255 255 255 255 246 246 246 255 255 255 252 252 252 255 255 255 255 255 255 255 255 255 255 255 255 254 254 254 255 255 255 255 255 255 255 255 255 252 252 252 250 250 250 250 250 250
255 251 255 253 250 255 255 255 244 255 255 237 255 255 243 254 255 246 247 255 246 245 255 251 248 255 255 248 255 255 247 255 255 248 255 255 250 249 255 254 249 255 254 255 255 250 255 254 244 255 255 244 255 255 247 255 255 251 255 255 233 237 240 254 255 255 234 236 233 254 255 251 243 244 239 255 255 251 255 254 255 255 252 253 255 253 254 254 250 251 255 255 251 243 244 239 254 255 251 254 255 253 238 239 241 254 255 255
255 254 255 255 255 255 255 255 251 255 255 248 251 250 245 249 255 251 237 255 253 237 255 255 251 255 255 253 253 255 243 255 255 248 255 255 255 250 255 255 248 255 254 255 255 246 255 254 236 255 253 245 255 255 255 252 255 255 250 255 254 254 255 250 255 255 248 255 250 251 255 244 250 252 239 255 255 246 254 244 245 255 250 255 255 250 255 254 244 245 255 255 246 250 252 239 251 255 244 248 255 250 250 255 255 251 255 255
255 255 255 255 255 255 255 255 255 255 255 253 255 254 251 251 255 253 234 255 255 235 255 255 254 254 255 255 252 255 245 255 255 244 253 255 255 250 255 255 246 253 245 251 247 244 255 253 240 255 255 246 255 255 250 236 249 255 241 255 253 249 255 250 255 255 247 255 249 251 255 244 251 255 241 255 255 250 255 249 255 255 249 255 255 249 255 255 249 255 255 255 250 251 255 241 251 255 244 247 255 249 250 255 255 249 251 255
255 255 255 255 255 255 255 255 255 255 254 255 255 251 252 248 247 245 236 255 253 238 255 255 253 251 255 255 252 255 247 255 255 247 255 255 255 249 251 255 253 253 243 254 248 239 255 251 240 255 255 248 255 255 255 247 255 255 246 255 255 247 255 255 253 255 254 255 255 249 254 248 251 255 255 252 255 255 254 252 255 249 246 255 249 246 255 254 252 255 252 255 255 251 255 255 249 254 248 254 255 255 255 253 255 253 249 255
255 255 255 255 255 255 255 255 255 255 253 253 255 247 248 255 253 251 241 255 253 242 255 253 255 247 251 255 241 247 246 251 247 248 255 252 255 253 250 255 254 251 245 255 251 237 255 248 230 253 245 247 255 255 255 248 255 255 239 255 255 247 255 255 250 255 253 254 255 239 253 253 235 255 255 213 249 255 218 255 255 219 255 255 219 255 255 218 255 255 213 249 255 235 255 255 239 253 253 253 254 255 255 250 255 255 248 255
255 255 255 255 255 255 255 255 255 255 253 255 255 245 250 255 251 251 244 255 250 243 254 246 255 247 250 255 245 250 255 248 244 255 254 248 255 246 240 245 240 234 243 255 248 240 255 251 234 255 248 249 255 255 255 249 255 255 232 248 255 235 253 255 239 254 251 255 255 231 255 255 203 255 255 85 183 194 47 169 193 37 172 204 37 172 204 47 169 193 85 183 194 203 255 255 231 255 255 251 255 255 255 239 254 255 234 255
255 255 255 255 255 255 255 255 255 255 253 255 255 244 249 255 250 251 239 249 240 245 247 236 255 242 244 255 238 243 255 239 236 255 248 241 255 247 243 254 239 232 237 247 236 242 255 250 242 255 253 249 255 255 255 250 255 255 246 255 255 244 255 255 244 255 250 255 255 224 255 255 191 255 255 42 169 184 15 175 207 16 194 232 16 194 232 15 175 207 42 169 184 191 255 255 224 255 255 250 255 255 255 244 255 255 242 255
255 255 255 255 255 255 255 255 255 255 253 255 255 247 251 255 248 248 251 255 246 255 253 243 255 227 228 255 219 227 255 233 234 255 237 236 255 223 221 255 246 241 255 255 244 244 255 245 245 255 249 243 252 249 248 244 245 255 249 255 255 246 253 255 249 255 251 255 255 226 255 255 196 255 255 43 164 193 18 174 222 11 186 243 11 186 243 18 174 222 43 164 193 196 255 255 226 255 255 251 255 255 255 249 255 255 245 253
255 255 255 255 255 255 255 255 255 255 254 255 255 250 255 254 244 243 252 255 244 243 223 212 180 91 95 162 42 52 178 65 71 156 55 59 161 79 83 255 214 213 255 251 243 240 243 234 249 255 251 249 255 253 248 250 249 255 253 253 255 247 245 255 251 250 251 255 255 221 255 255 199 255 255 51 167 206 24 179 236 4 177 245 4 177 245 24 179 236 51 167 206 199 255 255 221 255 255 251 255 255 255 251 250 255 246 243
255 255 255 255 255 255 255 255 255 255 254 255 255 253 255 255 252 251 252 255 244 255 246 235 172 57 64 197 41 55 200 46 58 188 46 58 170 54 63 255 230 236 255 245 243 255 254 248 254 255 251 246 255 250 248 255 255 251 255 251 255 255 244 255 255 244 246 255 250 230 255 255 198 255 255 51 164 206 22 176 238 4 178 251 4 178 251 22 176 238 51 164 206 198 255 255 230 255 255 246 255 250 255 255 244 255 253 241
255 255 255 255 255 255 255 255 255 255 255 255 255 254 255 253 253 253 252 255 244 255 244 231 186 51 58 217 32 48 223 35 52 209 37 51 187 47 60 255 225 234 255 241 243 255 251 248 255 255 251 246 255 252 244 255 255 245 255 250 255 255 241 255 255 241 244 255 247 228 255 255 197 255 255 48 166 206 16 179 238 0 181 251 0 181 251 16 179 238 48 166 206 197 255 255 228 255 255 244 255 247 255 255 241 255 255 237
255 255 255 255 255 255 255 255 255 255 255 255 254 254 255 252 253 255 252 255 244 255 242 229 196 47 53 231 26 43 240 27 45 225 30 47 197 42 56 255 222 232 255 239 243 255 250 250 255 253 253 246 255 252 242 255 255 242 255 251 252 255 243 252 255 241 242 255 247 226 255 255 193 255 255 40 170 204 5 185 236 0 188 249 0 188 249 5 185 236 40 170 204 193 255 255 226 255 255 242 255 247 252 255 241 255 255 237
255 255 255 255 255 255 255 255 255 255 254 255 254 254 255 252 253 255 252 255 244 255 241 229 201 44 51 238 23 39 247 24 42 232 27 42 198 42 55 255 223 230 255 240 243 255 250 251 255 253 255 249 253 254 244 255 255 242 255 251 249 255 244 251 255 244 244 255 248 230 255 255 198 255 255 47 167 201 12 182 233 0 186 246 0 186 246 12 182 233 47 167 201 198 255 255 230 255 255 244 255 248 251 255 244 252 255 241
255 255 255 255 255 255 255 255 255 255 254 255 255 252 255 253 252 255 254 255 246 255 241 227 203 44 49 239 23 36 247 25 38 227 30 40 191 46 53 255 228 230 255 244 243 255 252 251 255 252 255 252 251 255 248 255 255 245 255 253 248 255 250 249 255 250 249 253 252 241 255 255 217 255 255 69 156 199 37 170 229 18 173 240 18 173 240 37 170 229 69 156 199 217 255 255 241 255 255 249 253 252 249 255 250 249 255 246
255 255 255 255 255 255 255 255 255 255 254 255 255 250 255 255 250 255 254 255 246 255 242 227 201 45 48 238 24 34 243 28 35 222 33 37 181 51 51 255 233 230 255 247 244 255 254 253 255 251 255 255 249 255 252 255 255 249 255 255 249 255 253 251 255 255 251 252 255 245 255 255 221 255 255 73 154 199 39 169 227 19 173 237 19 173 237 39 169 227 73 154 199 221 255 255 245 255 255 251 252 255 251 255 255 249 255 253
255 255 255 255 255 255 255 255 255 255 253 255 255 249 255 255 248 255 255 255 246 255 242 227 199 47 46 232 27 32 236 32 33 212 39 35 170 57 49 255 238 230 255 252 244 252 255 255 255 251 255 255 247 255 255 253 255 255 254 255 255 254 255 255 254 255 252 250 255 241 255 255 211 255 255 58 162 199 19 180 226 0 185 235 0 185 235 19 180 226 58 162 199 211 255 255 241 255 255 252 250 255 255 254 255 254 255 255
255 255 255 255 255 255 255 255 255 255 254 255 255 253 255 254 251 255 255 255 246 255 240 229 193 48 51 222 31 39 228 35 40 206 40 40 169 58 51 255 238 228 255 250 243 255 255 253 255 252 255 255 249 255 255 253 255 255 253 255 255 253 255 255 253 255 249 252 255 233 255 255 200 255 255 47 168 195 11 185 219 0 190 226 0 190 226 11 185 219 47 168 195 200 255 255 233 255 255 249 252 255 255 253 255 255 252 255
255 255 255 255 255 255 255 255 255 249 255 255 236 255 255 235 252 246 255 250 246 255 232 235 183 48 62 206 35 53 223 42 59 205 41 52 177 52 56 255 223 221 255 243 237 255 242 236 255 254 255 250 255 255 247 254 255 254 255 255 255 249 246 255 251 246 245 255 255 218 255 255 189 255 255 38 171 188 14 184 207 0 181 205 0 181 205 14 184 207 38 171 188 189 255 255 218 255 255 245 255 255 255 251 246 255 248 241
255 255 255 255 255 255 255 255 255 248 255 255 233 255 253 241 255 250 255 248 246 255 229 237 180 63 81 189 43 64 199 43 64 192 45 61 180 65 72 255 229 228 255 242 237 253 236 229 253 254 249 242 252 253 242 252 255 241 244 249 255 252 246 255 253 244 245 255 255 213 255 255 197 255 255 69 171 186 58 183 203 41 177 199 41 177 199 58 183 203 69 171 186 197 255 255 213 255 255 245 255 255 255 253 244 255 251 239
255 255 255 255 255 255 255 255 255 251 255 253 232 254 242 248 255 250 255 249 246 255 217 223 169 76 87 161 46 61 164 44 56 169 59 68 164 78 79 255 216 212 255 246 241 255 252 246 255 255 253 249 254 255 251 255 255 254 255 255 251 247 244 255 251 248 252 255 255 247 255 255 238 255 255 205 236 255 227 255 255 223 255 255 223 255 255 227 255 255 205 236 255 238 255 255 247 255 255 252 255 255 255 251 248 254 247 241
255 255 255 255 255 255 255 255 255 252 255 253 247 255 249 253 255 247 255 243 239 255 242 243 255 223 227 255 231 237 255 230 236 255 233 236 255 228 226 255 245 239 255 244 237 251 248 241 254 255 253 247 251 252 252 253 255 244 243 249 252 253 255 255 255 255 254 252 255 249 243 253 255 251 255 245 233 253 255 248 255 255 248 255 255 248 255 255 248 255 245 233 253 255 251 255 249 243 253 254 252 255 255 255 255 252 254 253
255 255 255 255 255 255 255 255 255 255 255 253 255 254 249 255 254 246 255 250 246 255 248 244 255 239 239 255 243 243 255 239 238 255 246 243 255 247 242 255 252 246 255 255 248 255 255 251 254 255 253 251 252 254 255 254 255 255 253 255 254 254 255 254 254 255 255 253 255 254 247 254 255 251 255 255 248 254 255 247 253 255 246 253 255 246 253 255 247 253 255 248 254 255 251 255 254 247 254 255 253 255 254 254 255 252 255 255
255 255 255 255 255 255 255 255 255 255 255 253 255 254 248 255 249 243 255 241 236 255 243 239 255 250 246 255 250 246 255 250 246 255 250 244 255 254 248 255 255 248 246 249 242 236 241 235 244 246 243 255 255 255 255 253 255 251 249 254 252 255 255 252 255 255 255 253 255 255 248 251 255 245 245 255 248 245 255 244 241 255 237 234 255 237 234 255 244 241 255 248 245 255 245 245 255 248 251 255 253 255 252 255 255 251 255 255
