P3
38
36
255
0 0 0 3 3 3 4 4 4 0 0 0 0 0 0 0 0 0 6 6 6 6 6 6 0 0 0 6 6 6 0 0 0 5 5 5 0 0 0 5 5 5 5 5 5 1 0 0 4 0 0 6 4 0 2 6 0 0 7 0 0 21 0 0 13 0 0 10 2 0 9 12 0 2 14 0 0 18 0 0 18 3 0 14 6 0 9 6 0 2 1 0 0 0 3 0 0 7 14 0 4 16 1 8 14 3 1 2 3 0 0 4 0 0
13 13 13 0 0 0 14 14 14 0 0 0 0 0 0 5 5 5 0 0 0 0 0 0 0 0 0 0 0 0 0 0 0 7 7 7 22 22 22 0 0 0 5 5 5 17 16 14 5 0 0 5 0 0 0 2 0 0 5 0 0 16 1 0 11 0 0 6 0 0 4 5 0 0 11 0 0 14 3 0 14 4 0 11 6 0 5 4 0 0 0 1 0 0 2 0 0 4 9 0 2 11 0 4 7 0 0 0 1 1 0 3 0 0
0 0 0 18 18 18 251 251 251 255 255 255 255 255 255 255 255 255 243 243 243 255 255 255 255 255 255 255 255 255 255 255 255 251 251 251 235 235 235 19 19 19 3 3 3 1 0 2 7 0 5 8 0 6 1 0 0 2 1 0 4 0 0 5 0 0 4 0 0 4 0 0 9 0 5 11 0 8 13 0 8 11 0 7 6 2 3 4 3 0 3 5 0 6 3 0 10 0 0 10 0 0 3 0 0 1 3 0 0 2 0 0 2 0
0 0 0 0 0 0 255 255 255 250 250 250 245 245 245 252 252 252 248 248 248 255 255 255 255 255 255 255 255 255 255 255 255 255 255 255 255 255 255 0 0 0 0 0 0 1 0 4 4 0 11 4 0 11 6 1 7 16 2 2 24 0 0 31 0 0 29 0 0 34 0 0 25 0 0 27 0 0 29 0 0 25 0 0 14 0 0 10 0 0 14 0 0 22 0 0 37 0 0 42 0 0 8 0 0 6 12 2 1 8 1 0 7 4
2 2 2 0 0 0 247 247 247 255 255 255 255 255 255 255 255 255 255 255 255 238 238 238 250 250 250 255 255 255 240 240 240 251 251 251 253 253 253 0 0 0 0 0 0 12 11 16 5 3 16 4 0 14 4 0 0 20 0 0 52 0 0 64 0 0 59 0 0 56 0 0 57 0 0 58 0 0 62 0 0 57 0 0 38 0 0 34 0 0 44 0 0 55 0 0 66 0 0 58 0 0 17 0 0 0 4 0 0 4 0 0 10 10
0 0 0 0 0 0 253 253 253 255 255 255 243 243 243 240 240 240 255 255 255 255 255 255 251 251 251 255 255 255 255 255 255 255 255 255 255 255 255 7 7 7 0 0 0 0 0 4 0 0 9 0 0 5 3 0 0 42 6 0 170 72 61 213 86 71 212 91 62 204 88 49 204 91 49 207 89 49 215 85 51 208 88 54 186 99 56 182 101 56 197 93 56 208 87 60 217 84 67 186 84 69 50 19 0 10 22 2 0 7 1 0 7 10
1 1 1 0 0 0 251 251 251 255 255 255 255 255 255 255 255 255 255 255 255 252 252 252 255 255 255 252 252 252 255 255 255 249 249 249 246 246 246 3 3 3 1 1 1 1 5 4 1 11 10 0 6 0 1 3 0 37 0 0 208 86 62 240 80 48 237 81 33 231 76 19 233 79 17 239 76 17 250 70 19 243 73 22 218 85 26 216 86 28 236 75 29 244 70 36 241 71 48 197 72 52 28 0 0 0 7 0 0 8 2 0 11 14
2 2 2 0 0 0 255 255 255 255 255 255 243 243 243 255 255 255 244 244 244 255 255 255 255 255 255 247 247 247 255 255 255 252 252 252 254 254 254 0 0 0 0 0 0 0 2 1 0 5 0 0 6 0 6 9 0 36 0 0 218 83 51 239 61 23 244 69 12 251 78 10 251 77 4 255 74 4 255 67 6 255 69 9 237 82 15 236 82 18 255 70 20 255 65 29 255 74 50 214 78 56 32 0 0 0 7 0 0 9 2 0 18 21
0 0 0 0 0 0 255 255 255 251 251 251 253 253 253 255 255 255 255 255 255 255 255 255 255 255 255 253 253 253 255 255 255 246 246 246 255 255 255 0 0 0 0 0 0 0 3 2 0 5 0 0 6 0 6 9 0 36 0 0 218 83 51 239 61 23 244 69 12 251 78 10 251 77 4 255 74 4 255 67 6 255 69 9 237 82 15 236 82 18 255 70 20 255 65 29 255 74 50 214 78 56 32 0 0 0 7 0 0 9 2 0 18 21
2 2 2 0 0 0 255 255 255 251 251 251 255 255 255 255 255 255 248 248 248 248 248 248 251 251 251 255 255 255 247 247 247 249 249 249 246 246 246 11 11 11 0 0 0 0 1 0 1 11 10 0 6 0 1 3 0 37 0 0 208 86 62 240 80 48 237 81 33 231 76 19 233 79 17 239 76 17 250 70 19 243 73 22 218 85 26 216 86 28 236 75 29 244 70 36 241 71 48 197 72 52 28 0 0 0 7 0 0 8 2 0 11 14
4 4 4 0 0 0 255 255 255 255 255 255 255 255 255 255 255 255 255 255 255 255 255 255 255 255 255 255 255 255 253 253 253 255 255 255 254 254 254 5 5 5 0 0 0 0 0 4 0 0 9 0 0 5 3 0 0 42 6 0 170 72 61 213 86 71 212 91 62 204 88 49 204 91 49 207 89 49 215 85 51 208 88 54 186 99 56 182 101 56 197 93 56 208 87 60 217 84 67 186 84 69 50 19 0 10 22 2 0 7 1 0 7 10
0 0 0 0 0 0 255 255 255 250 250 250 250 250 250 246 246 246 254 254 254 255 255 255 253 253 253 245 245 245 255 255 255 255 255 255 255 255 255 0 0 0 3 3 3 12 11 16 5 3 16 4 0 14 4 0 0 20 0 0 52 0 0 64 0 0 59 0 0 56 0 0 57 0 0 58 0 0 62 0 0 57 0 0 38 0 0 34 0 0 44 0 0 55 0 0 66 0 0 58 0 0 17 0 0 0 4 0 0 4 0 0 10 10
5 5 5 19 19 19 244 244 244 255 255 255 255 255 255 255 255 255 253 253 253 241 241 241 255 255 255 255 255 255 255 255 255 255 255 255 240 240 240 15 15 15 0 0 0 1 0 4 4 0 11 4 0 11 6 1 7 16 2 2 24 0 0 31 0 0 29 0 0 34 0 0 25 0 0 27 0 0 29 0 0 25 0 0 14 0 0 10 0 0 14 0 0 22 0 0 37 0 0 42 0 0 8 0 0 6 12 2 1 8 1 0 7 4
6 6 6 0 0 0 26 26 26 0 0 0 0 0 0 0 0 0 9 9 9 9 9 9 0 0 0 10 10 10 0 0 0 0 0 0 8 8 8 0 0 0 9 9 9 21 19 22 7 0 5 8 0 6 1 0 0 2 1 0 4 0 0 5 0 0 4 0 0 4 0 0 9 0 5 11 0 8 13 0 8 11 0 7 6 2 3 4 3 0 3 5 0 6 3 0 10 0 0 10 0 0 3 0 0 1 3 0 0 2 0 0 2 0
8 8 8 0 0 0 2 2 2 0 0 0 4 4 4 4 4 4 4 4 4 0 0 0 0 0 0 9 9 9 0 0 0 9 9 9 0 0 0 21 21 21 0 0 0 1 0 0 5 0 0 5 0 0 0 2 0 0 5 0 0 16 1 0 11 0 0 6 0 0 4 5 0 0 11 0 0 14 3 0 14 4 0 11 6 0 5 4 0 0 0 1 0 0 2 0 0 4 9 0 2 11 0 4 7 0 0 0 1 1 0 3 0 0
1 0 0 13 12 10 0 0 4 2 3 7 0 1 0 0 0 0 3 0 4 4 0 4 8 3 0 3 0 0 5 4 0 0 0 0 0 0 2 4 4 6 3 0 0 22 18 15 1 1 0 2 6 0 0 8 0 0 8 0 0 20 2 0 11 0 0 9 2 0 8 10 0 0 11 0 0 14 3 0 12 6 0 11 7 0 5 6 0 2 0 1 0 0 2 0 0 6 9 0 3 9 4 8 11 3 2 0 1 1 0 3 0 0
11 4 0 3 0 0 1 3 15 0 2 13 0 3 0 7 6 2 8 0 12 13 0 11 13 0 0 10 0 0 3 0 0 0 2 0 1 2 6 2 0 6 7 0 0 4 0 0 0 5 0 0 14 0 0 9 0 0 16 0 0 23 7 0 9 0 0 6 0 0 2 2 4 0 4 10 0 5 13 0 4 13 0 4 10 0 2 6 0 0 0 1 0 0 2 0 1 0 0 14 11 6 1 0 0 11 12 6 0 2 0 4 6 1
7 0 0 3 0 0 0 0 19 0 0 19 0 5 0 2 7 1 8 0 13 14 0 10 21 5 0 12 4 0 2 6 0 0 7 2 0 4 12 0 0 10 7 0 0 8 0 0 0 3 0 5 19 6 0 8 0 0 7 0 0 6 0 0 5 0 7 11 10 7 5 6 7 0 0 11 0 0 13 0 0 11 0 0 7 0 0 3 0 0 0 2 0 0 2 0 8 1 0 13 3 0 4 0 0 3 2 0 0 1 0 0 2 0
13 9 0 0 0 4 0 8 39 0 5 34 0 6 5 0 9 2 0 0 7 3 0 0 3 3 0 0 6 0 0 7 0 0 6 2 0 3 14 0 0 14 4 0 2 11 0 0 10 0 0 9 0 0 7 0 0 8 0 0 6 0 0 6 0 0 12 3 6 6 0 2 9 0 5 9 0 3 9 0 3 6 2 1 3 4 0 0 6 0 0 8 0 0 6 0 5 0 0 13 3 2 6 1 0 8 4 3 4 3 1 0 0 0
1 0 0 0 0 18 0 1 63 0 0 76 0 0 57 0 0 51 0 0 58 0 0 51 0 3 37 0 1 29 0 4 46 0 8 58 0 5 54 0 0 35 0 0 9 11 0 0 19 0 2 15 0 0 15 0 0 25 2 10 21 0 7 13 0 2 10 0 6 6 0 4 1 0 4 0 0 4 0 2 2 0 2 0 0 3 0 0 4 0 0 4 0 0 3 0 0 1 0 2 1 6 0 0 2 1 0 2 1 0 2 11 9 12
5 6 8 0 2 43 14 23 140 12 24 184 5 22 187 14 27 202 16 20 207 22 20 207 16 16 188 10 15 179 5 18 184 8 23 174 2 16 138 0 2 81 0 0 23 5 0 1 9 0 1 11 0 2 16 0 4 18 0 7 15 0 4 13 0 5 11 0 10 15 12 21 0 1 7 0 4 7 0 5 5 0 5 4 0 3 4 0 1 2 3 0 0 0 0 2 0 13 19 2 19 26 0 3 9 4 7 14 0 0 4 19 14 20
0 1 0 0 0 44 8 16 163 7 18 224 0 13 237 1 16 255 3 8 255 9 10 255 13 16 255 7 13 247 6 18 250 12 27 232 5 19 177 0 2 99 0 0 25 1 0 0 1 0 0 10 4 8 12 1 7 10 0 4 12 0 7 18 8 19 0 0 11 0 4 12 0 10 12 0 14 12 0 16 12 0 15 12 0 11 12 0 8 11 0 3 11 0 5 12 0 12 18 0 13 18 0 9 14 0 11 18 0 0 7 9 6 13
1 5 0 0 4 46 17 24 177 10 23 241 0 14 249 0 17 255 0 10 255 1 12 255 0 9 248 0 7 243 0 12 249 2 22 233 0 16 173 0 0 91 0 0 14 1 6 0 0 7 0 0 9 2 0 2 2 0 1 4 10 15 21 1 16 23 0 9 14 0 41 42 0 25 19 0 30 21 0 33 23 0 32 25 0 27 25 0 22 25 0 17 25 0 17 27 0 32 34 0 26 27 0 39 43 0 10 16 0 3 9 0 0 7
0 2 0 0 0 47 13 17 186 6 17 249 0 10 254 0 17 255 0 14 255 0 20 255 1 22 251 0 16 247 0 19 255 4 25 240 0 17 177 0 0 95 0 0 18 5 6 0 0 5 0 0 5 0 0 6 4 0 2 5 0 9 15 0 8 12 0 32 34 94 176 172 85 201 192 68 208 195 58 213 199 57 213 200 64 209 202 74 204 204 85 198 206 86 197 204 78 203 199 75 190 183 91 177 176 0 27 29 0 8 13 0 1 7
3 0 11 0 0 62 18 16 205 3 8 255 0 18 255 0 16 255 0 20 250 0 18 239 0 19 231 0 21 237 0 18 250 0 16 233 12 25 192 0 0 99 0 0 35 7 0 0 7 0 0 11 2 0 8 0 0 7 0 3 0 1 7 0 7 14 0 18 19 99 200 196 67 209 197 46 218 204 30 225 208 23 228 213 28 225 215 33 222 218 43 216 220 49 215 215 50 214 203 63 210 194 86 196 187 0 22 19 0 9 12 0 5 11
4 0 9 0 0 64 20 14 208 4 7 255 0 17 255 0 15 255 0 20 248 0 19 237 0 18 229 0 21 237 0 17 250 0 16 232 13 24 191 0 0 96 1 0 35 8 0 0 12 0 0 10 0 0 8 0 0 9 4 8 0 7 11 0 16 19 0 22 21 77 190 184 55 209 197 32 220 203 15 228 210 8 231 213 8 230 217 12 227 220 19 223 222 27 220 215 32 213 196 56 212 191 91 211 199 0 25 19 0 16 17 0 5 9
6 0 0 0 0 46 21 15 201 6 7 255 2 16 255 0 14 255 0 17 253 0 16 246 0 15 242 1 18 248 0 15 253 0 15 228 13 27 178 0 0 80 1 0 19 7 0 0 2 2 0 0 3 0 0 3 0 0 14 8 0 10 5 0 17 12 0 36 28 93 213 203 58 214 200 38 223 207 24 229 212 17 232 216 16 232 219 17 231 221 23 228 223 33 224 216 49 220 202 66 212 191 94 209 194 0 24 18 0 12 12 0 5 9
4 1 0 0 0 44 21 15 199 6 7 255 2 16 255 0 13 255 3 15 255 2 13 251 1 12 252 4 15 255 0 14 255 0 16 226 13 28 173 0 0 74 1 0 18 7 0 0 4 0 0 1 1 0 2 4 0 0 8 4 0 8 5 0 13 11 0 28 27 75 164 160 83 198 191 69 204 197 59 208 202 54 211 204 52 211 206 54 210 207 56 208 209 62 207 204 72 207 193 75 192 174 86 179 168 0 32 28 0 16 16 0 5 9
1 0 0 0 0 53 18 16 205 6 6 255 2 16 255 0 13 255 4 15 255 3 12 255 2 10 255 5 13 255 1 13 255 0 16 226 13 28 173 0 0 80 0 0 30 10 0 4 18 0 0 20 0 0 17 0 0 13 0 2 12 1 9 10 8 19 0 2 12 12 32 43 0 9 20 0 11 24 0 13 26 0 14 26 0 14 28 0 13 28 0 13 28 0 15 26 0 23 20 0 26 18 0 38 32 0 13 12 0 7 11 0 12 16
0 1 0 0 0 55 17 16 206 4 7 255 2 17 255 0 14 254 4 15 255 5 11 255 4 9 255 5 13 255 1 13 255 0 16 225 12 29 169 0 0 78 0 0 35 8 0 9 18 0 2 21 0 0 19 0 2 14 0 2 11 0 5 16 6 15 4 0 9 3 0 11 3 0 11 3 0 11 3 0 11 3 0 11 1 0 9 1 0 9 0 0 9 0 0 9 0 5 9 0 7 9 0 6 9 0 12 16 0 5 9 0 14 19
0 4 0 0 0 50 14 18 201 3 9 251 1 19 253 0 15 249 4 15 253 5 11 255 5 8 255 5 13 255 1 14 253 0 18 218 11 31 162 0 0 71 0 0 32 1 0 9 6 0 4 4 0 2 7 8 10 0 2 4 0 4 4 0 5 4 0 7 7 1 11 12 0 3 4 2 2 2 3 2 0 3 2 0 2 3 0 0 5 0 0 7 0 1 4 0 20 3 9 14 0 5 7 0 5 2 0 8 0 1 9 0 6 12
0 2 4 0 0 48 18 22 173 8 14 214 9 21 221 4 17 220 11 16 229 10 13 232 9 11 234 12 14 236 6 17 223 6 20 191 16 32 145 0 0 62 0 0 30 0 0 12 4 5 10 0 1 4 0 4 3 0 8 7 0 10 5 0 11 6 0 8 4 0 5 0 0 2 0 0 1 0 1 1 0 1 1 0 0 3 0 0 5 0 0 6 0 0 2 0 19 0 0 22 0 2 23 1 13 8 0 6 0 1 6 0 1 7
0 0 28 4 4 58 15 13 110 22 20 145 23 22 160 20 20 170 21 19 182 23 20 189 23 20 189 25 20 182 22 22 168 21 21 143 15 17 102 7 9 66 0 0 35 0 0 18 0 0 7 0 0 2 0 1 0 0 2 2 0 2 0 0 2 0 0 2 0 0 1 0 0 1 0 0 0 0 0 0 0 0 1 0 0 1 0 0 1 0 0 2 0 0 1 0 6 0 0 7 0 0 4 0 2 3 0 2 0 0 2 0 0 2
0 0 28 0 0 35 0 0 49 0 0 62 0 0 73 0 0 85 0 0 94 0 0 99 0 0 97 0 0 90 0 0 78 0 0 64 0 0 46 0 0 32 0 0 21 0 0 11 0 0 4 0 0 0 0 0 0 0 0 0 0 0 0 0 0 0 0 0 0 0 0 0 0 0 0 0 0 0 0 0 0 0 0 0 0 0 0 0 0 0 0 0 0 0 0 0 0 0 0 0 0 0 0 0 0 0 0 0 0 0 0 0 0 0
0 0 5 1 1 11 1 2 20 0 0 25 0 0 32 0 0 39 0 0 44 0 0 46 0 0 47 0 0 42 0 0 34 0 0 23 0 0 12 0 2 5 0 4 0 2 5 0 0 0 0 0 0 0 0 0 0 0 0 0 0 0 0 0 0 0 0 0 0 0 0 0 0 0 0 0 0 0 0 0 0 0 0 0 0 0 0 0 0 0 0 0 0 0 0 0 0 0 0 0 0 0 0 0 0 0 0 0 0 0 0 0 0 0
0 2 0 0 1 0 0 1 2 0 0 7 0 1 11 0 0 16 0 3 22 0 6 27 0 7 26 0 5 21 0 5 14 0 1 4 0 3 0 0 3 0 0 5 0 0 4 0 0 1 0 0 0 0 0 0 0 0 0 0 0 0 0 0 0 0 0 0 0 0 0 0 0 0 0 0 0 0 0 0 0 0 0 0 0 0 0 0 0 0 0 0 0 0 0 0 0 0 0 0 0 0 0 0 0 0 0 0 0 0 0 0 0 0
